<svg width="15" height="15" viewBox="0 0 15 15" fill="none" xmlns="http://www.w3.org/2000/svg">
<path fill-rule="evenodd" clip-rule="evenodd" d="M3.97643 5.75347C4.22051 5.50939 4.22051 5.11366 3.97643 4.86958C3.73236 4.6255 3.33663 4.6255 3.09255 4.86958L1.15523 6.8069C1.03802 6.92411 0.972168 7.08308 0.972168 7.24884C0.972168 7.4146 1.03802 7.57357 1.15523 7.69078L3.09255 9.62811C3.33663 9.87219 3.73236 9.87219 3.97643 9.62811C4.22051 9.38403 4.22051 8.9883 3.97643 8.74422L3.10623 7.87402H9.73438C10.0796 7.87402 10.3594 7.5942 10.3594 7.24902C10.3594 6.90385 10.0796 6.62402 9.73438 6.62402H3.10587L3.97643 5.75347Z" fill="white"/>
<path fill-rule="evenodd" clip-rule="evenodd" d="M12.187 1.19804C12.1767 1.19752 12.1663 1.19727 12.1559 1.19727H5.81544C5.80507 1.19727 5.7947 1.19752 5.78434 1.19804C5.42321 1.21603 5.08396 1.37632 4.84074 1.64381C4.60103 1.90739 4.47397 2.25379 4.48577 2.60914V3.92163C4.48577 4.26681 4.76559 4.54663 5.11077 4.54663C5.45595 4.54663 5.73577 4.26681 5.73577 3.92163V2.5972C5.73577 2.58782 5.73556 2.57844 5.73514 2.56907C5.73374 2.53794 5.7447 2.5077 5.7655 2.48484L5.76559 2.48474C5.78447 2.46397 5.81007 2.45075 5.83772 2.44727H12.1336C12.1612 2.45074 12.1867 2.46393 12.2055 2.48461L12.2055 2.48463C12.2263 2.5075 12.2371 2.53768 12.2357 2.56856C12.2353 2.5781 12.2351 2.58765 12.2351 2.5972V11.8963C12.2351 11.9058 12.2353 11.9152 12.2357 11.9245C12.2371 11.9555 12.2262 11.9858 12.2053 12.0088C12.1865 12.0295 12.1609 12.0427 12.1333 12.0463H5.8377C5.81004 12.0428 5.78444 12.0296 5.76558 12.0088L5.7655 12.0087C5.74471 11.9859 5.73374 11.9556 5.73514 11.9245C5.73556 11.9151 5.73577 11.9057 5.73577 11.8963V10.8904C5.73577 10.5452 5.45595 10.2654 5.11077 10.2654C4.76559 10.2654 4.48577 10.5452 4.48577 10.8904V11.8844C4.47397 12.2398 4.60105 12.5863 4.84083 12.8499C5.08406 13.1173 5.42329 13.2775 5.78435 13.2955C5.79471 13.296 5.80507 13.2963 5.81544 13.2963H12.1559C12.1664 13.2963 12.177 13.296 12.1875 13.2955C12.5483 13.2772 12.8874 13.1169 13.1305 12.8494C13.3698 12.5859 13.4969 12.2397 13.4851 11.8844V2.60935C13.4971 2.25392 13.3701 1.90753 13.1306 1.64401M12.187 1.19804C12.5481 1.21604 12.8874 1.37638 13.1306 1.64399L12.187 1.19804Z" fill="white"/>
</svg>
