<?xml version="1.0" standalone="no"?>
<!DOCTYPE svg PUBLIC "-//W3C//DTD SVG 20010904//EN"
 "http://www.w3.org/TR/2001/REC-SVG-20010904/DTD/svg10.dtd">
<svg version="1.0" xmlns="http://www.w3.org/2000/svg"
 width="513.000000pt" height="169.000000pt" viewBox="0 0 513.000000 169.000000"
 preserveAspectRatio="xMidYMid meet">

<g transform="translate(0.000000,169.000000) scale(0.100000,-0.100000)"
fill="#000000" stroke="none">
<path d="M2188 1548 l-3 -113 -192 -3 -193 -2 0 -90 0 -90 500 0 500 0 0 90 0
90 -195 0 -195 0 0 115 0 115 -110 0 -109 0 -3 -112z"/>
<path d="M2890 840 l0 -820 105 0 105 0 0 370 0 370 130 0 130 0 0 95 0 95
-130 0 -130 0 0 355 0 355 -105 0 -105 0 0 -820z"/>
<path d="M3938 1548 l-3 -113 -192 -3 -193 -2 0 -90 0 -90 503 2 502 3 3 87 3
88 -198 2 -198 3 -3 113 -3 112 -109 0 -109 0 -3 -112z"/>
<path d="M4640 840 l0 -820 108 0 107 0 0 367 0 368 128 3 127 3 0 94 0 94
-127 3 -128 3 0 353 0 352 -107 0 -108 0 0 -820z"/>
<path d="M640 1621 c-182 -26 -329 -110 -381 -219 -32 -65 -32 -168 -1 -234
67 -137 264 -218 532 -218 340 0 553 129 554 336 0 150 -122 270 -325 319 -74
18 -298 27 -379 16z m345 -192 c169 -52 192 -202 40 -270 -125 -56 -386 -49
-496 13 -47 26 -79 73 -79 115 0 74 94 143 220 162 91 14 237 5 315 -20z"/>
<path d="M2195 1165 c-135 -24 -233 -94 -288 -204 -114 -227 4 -480 255 -547
64 -17 188 -18 260 -3 119 26 234 114 281 217 18 39 22 65 22 157 0 100 -3
115 -28 167 -37 75 -128 160 -202 187 -53 20 -166 41 -210 40 -11 0 -52 -7
-90 -14z m238 -211 c61 -42 89 -103 85 -180 -5 -75 -37 -128 -101 -165 -56
-32 -172 -34 -231 -4 -61 31 -96 82 -103 148 -8 80 3 119 45 167 49 54 97 71
190 67 61 -3 80 -9 115 -33z"/>
<path d="M3968 1170 c-158 -28 -253 -94 -319 -220 -18 -36 -24 -65 -27 -145
-5 -125 16 -189 88 -268 84 -92 192 -137 332 -137 97 0 168 15 238 50 253 127
277 480 45 646 -86 60 -246 94 -357 74z m164 -190 c112 -32 171 -172 119 -286
-69 -152 -333 -152 -402 0 -36 79 -16 189 44 244 50 47 155 65 239 42z"/>
<path d="M27 823 c-4 -3 -7 -44 -7 -90 l0 -83 330 0 330 0 0 -135 0 -135 110
0 110 0 0 135 0 135 325 0 325 0 0 90 0 90 -758 0 c-417 0 -762 -3 -765 -7z"/>
<path d="M250 315 l0 -235 550 0 550 0 0 95 0 95 -445 0 -445 0 0 140 0 140
-105 0 -105 0 0 -235z"/>
</g>
</svg>
