<svg width="100" height="100" viewBox="0 0 100 100" fill="none" xmlns="http://www.w3.org/2000/svg">
<rect width="100" height="100" fill="#E8F6F7"/>
<mask id="mask0_50_542" style="mask-type:alpha" maskUnits="userSpaceOnUse" x="0" y="0" width="100" height="100">
<rect width="100" height="100" fill="#E8F6F7"/>
</mask>
<g mask="url(#mask0_50_542)">
<path d="M23.9835 76.3908C16.9509 83.33 13 92.7411 13 102.554H88C88 92.7411 84.0491 83.33 77.0161 76.3908C69.984 69.4525 60.4458 65.5542 50.5 65.5542C40.5543 65.5542 31.0162 69.4525 23.9835 76.3908Z" fill="white"/>
<path fill-rule="evenodd" clip-rule="evenodd" d="M50.5 67.5542C41.0762 67.5542 32.0438 71.2482 25.3882 77.8145L23.9835 76.3908L25.3882 77.8145C18.7335 84.3808 15 93.2803 15 102.554V104.554H11V102.554C11 92.2019 15.1683 82.2793 22.5788 74.9671L22.5789 74.967C29.9886 67.6568 40.0325 63.5542 50.5 63.5542C60.9676 63.5542 71.0116 67.6567 78.4208 74.9671C85.8317 82.2792 90 92.2019 90 102.554V104.554H86V102.554C86 93.2803 82.2664 84.3807 75.6114 77.8144C68.9564 71.2482 59.9239 67.5542 50.5 67.5542Z" fill="#A6D3D5"/>
</g>
<path d="M34 40.0536C34 44.1644 35.6858 48.1072 38.6864 51.0136C41.6873 53.9207 45.7568 55.5537 49.9999 55.5537C54.2437 55.5537 58.3131 53.9207 61.314 51.0136C64.3143 48.1072 66 44.1644 66 40.0536C66 35.9428 64.3143 32.0003 61.314 29.0935C58.3131 26.1868 54.2437 24.5537 49.9999 24.5537C45.7568 24.5537 41.6873 26.1868 38.6864 29.0935C35.6858 32.0003 34 35.9428 34 40.0536Z" fill="white"/>
<path fill-rule="evenodd" clip-rule="evenodd" d="M64.097 26.2204L64.0974 26.2207C67.8609 29.8671 70 34.8402 70 40.0536C70 45.2669 67.861 50.2404 64.0972 53.8866C60.3372 57.529 55.2643 59.5537 49.9999 59.5537C44.7361 59.5537 39.6634 57.5291 35.9034 53.8868C32.139 50.2406 30 45.2669 30 40.0536C30 34.8401 32.1391 29.867 35.9032 26.2205L35.9034 26.2204C39.6633 22.5784 44.736 20.5537 49.9999 20.5537C55.2643 20.5537 60.3371 22.5784 64.097 26.2204ZM38.6864 51.0136C41.6873 53.9207 45.7568 55.5537 49.9999 55.5537C54.2437 55.5537 58.3131 53.9207 61.314 51.0136C64.3143 48.1072 66 44.1644 66 40.0536C66 35.9428 64.3143 32.0003 61.314 29.0935C58.3131 26.1868 54.2437 24.5537 49.9999 24.5537C45.7568 24.5537 41.6873 26.1868 38.6864 29.0935C35.6858 32.0003 34 35.9428 34 40.0536C34 44.1644 35.6858 48.1072 38.6864 51.0136Z" fill="#A6D3D5"/>
</svg>
